<?xml version="1.0" encoding="UTF-8" standalone="no"?>
<!-- Generator: Adobe Illustrator 19.0.0, SVG Export Plug-In . SVG Version: 6.00 Build 0)  -->

<svg
   version="1.1"
   id="Layer_1"
   x="0px"
   y="0px"
   viewBox="0 0 2172.3458 2563.7461"
   xml:space="preserve"
   inkscape:version="1.3.2 (091e20e, 2023-11-25, custom)"
   sodipodi:docname="gist.svg"
   width="2172.3459"
   height="2563.7461"
   inkscape:export-filename="spot.png"
   inkscape:export-xdpi="90"
   inkscape:export-ydpi="90"
   xmlns:inkscape="http://www.inkscape.org/namespaces/inkscape"
   xmlns:sodipodi="http://sodipodi.sourceforge.net/DTD/sodipodi-0.dtd"
   xmlns="http://www.w3.org/2000/svg"
   xmlns:svg="http://www.w3.org/2000/svg"
   xmlns:rdf="http://www.w3.org/1999/02/22-rdf-syntax-ns#"
   xmlns:cc="http://creativecommons.org/ns#"
   xmlns:dc="http://purl.org/dc/elements/1.1/"><metadata
   id="metadata43"><rdf:RDF><cc:Work
       rdf:about=""><dc:format>image/svg+xml</dc:format><dc:type
         rdf:resource="http://purl.org/dc/dcmitype/StillImage" /></cc:Work></rdf:RDF></metadata><defs
   id="defs41"><clipPath
     clipPathUnits="userSpaceOnUse"
     id="clipPath24"><path
       d="m 11794.4,5026.5 c 0,0 77.1,-1387.4 1812.6,-1423 0,0 -1381.8,81.8 -1812.6,1423 z"
       id="path22" /></clipPath><linearGradient
     x1="0"
     y1="0"
     x2="1"
     y2="0"
     gradientUnits="userSpaceOnUse"
     gradientTransform="matrix(1102.93,-97.0125,-97.0125,-1102.93,15287.8,4083.9)"
     spreadMethod="pad"
     id="linearGradient32"><stop
       style="stop-opacity:1;stop-color:#00adef"
       offset="0"
       id="stop26" /><stop
       style="stop-opacity:1;stop-color:#00adef"
       offset="0.295699"
       id="stop28" /><stop
       style="stop-opacity:1;stop-color:#2c3892"
       offset="1"
       id="stop30" /></linearGradient><clipPath
     clipPathUnits="userSpaceOnUse"
     id="clipPath42"><path
       d="m 11763.2,5826.6 c 0,0 -528.9,-858.3 348.5,-1839 0,0 -676.7,812.2 -348.5,1839 z"
       id="path40" /></clipPath><linearGradient
     x1="0"
     y1="0"
     x2="1"
     y2="0"
     gradientUnits="userSpaceOnUse"
     gradientTransform="matrix(527.16,-666.996,-501.795,-594.804,13172.5,3340.5)"
     spreadMethod="pad"
     id="linearGradient50"><stop
       style="stop-opacity:1;stop-color:#00adef"
       offset="0"
       id="stop44" /><stop
       style="stop-opacity:1;stop-color:#00adef"
       offset="0.295699"
       id="stop46" /><stop
       style="stop-opacity:1;stop-color:#2c3892"
       offset="1"
       id="stop48" /></linearGradient><clipPath
     clipPathUnits="userSpaceOnUse"
     id="clipPath72"><path
       d="m 2588.92,5926.2 c 0,0 77.06,-1387.4 1812.53,-1423 0,0 -1381.79,81.8 -1812.53,1423 z"
       id="path70" /></clipPath><linearGradient
     x1="0"
     y1="0"
     x2="1"
     y2="0"
     gradientUnits="userSpaceOnUse"
     gradientTransform="matrix(1102.93,-97.0125,-97.0125,-1102.93,6082.28,4983.6)"
     spreadMethod="pad"
     id="linearGradient80"><stop
       style="stop-opacity:1;stop-color:#00adef"
       offset="0"
       id="stop74" /><stop
       style="stop-opacity:1;stop-color:#00adef"
       offset="0.295699"
       id="stop76" /><stop
       style="stop-opacity:1;stop-color:#2c3892"
       offset="1"
       id="stop78" /></linearGradient><clipPath
     clipPathUnits="userSpaceOnUse"
     id="clipPath90"><path
       d="m 2557.65,6726.3 c 0,0 -528.9,-858.3 348.55,-1839 0,0 -676.73,812.3 -348.55,1839 z"
       id="path88" /></clipPath><linearGradient
     x1="0"
     y1="0"
     x2="1"
     y2="0"
     gradientUnits="userSpaceOnUse"
     gradientTransform="matrix(527.16,-666.996,-501.795,-594.804,3967.03,4240.2)"
     spreadMethod="pad"
     id="linearGradient98"><stop
       style="stop-opacity:1;stop-color:#00adef"
       offset="0"
       id="stop92" /><stop
       style="stop-opacity:1;stop-color:#00adef"
       offset="0.295699"
       id="stop94" /><stop
       style="stop-opacity:1;stop-color:#2c3892"
       offset="1"
       id="stop96" /></linearGradient><clipPath
     clipPathUnits="userSpaceOnUse"
     id="clipPath110"><path
       d="m 12268.9,14695.1 c 0,0 488.2,-2310.6 3412.5,-1921.6 0,0 -2342.2,-219.9 -3412.5,1921.6 z"
       id="path108" /></clipPath><linearGradient
     x1="0"
     y1="0"
     x2="1"
     y2="0"
     gradientUnits="userSpaceOnUse"
     gradientTransform="matrix(1877.7,122.261,122.261,-1877.7,18380.5,14015.2)"
     spreadMethod="pad"
     id="linearGradient118"><stop
       style="stop-opacity:1;stop-color:#00adef"
       offset="0"
       id="stop112" /><stop
       style="stop-opacity:1;stop-color:#00adef"
       offset="0.295699"
       id="stop114" /><stop
       style="stop-opacity:1;stop-color:#2c3892"
       offset="1"
       id="stop116" /></linearGradient><clipPath
     clipPathUnits="userSpaceOnUse"
     id="clipPath128"><path
       d="m 15815.2,16419 c -93.9,4.2 -182.4,2.3 -266.1,-4.9 -314.7,-27.2 -559,-128.8 -745.9,-255.2 -405.3,-274.1 -540.8,-664.8 -540.8,-664.8 113.4,159.3 245.2,290.2 385,397.8 252.9,194.4 532.5,312.5 778.9,384.3 115.1,33.6 222.9,57 317.5,73.3 88.4,15.3 165.2,24.4 225.2,29.9 9.2,8.1 18.3,16.2 27.6,24.2 -62.5,7.7 -123,12.8 -181.4,15.4 z"
       id="path126" /></clipPath><linearGradient
     x1="0"
     y1="0"
     x2="1"
     y2="0"
     gradientUnits="userSpaceOnUse"
     gradientTransform="matrix(45643.7,12448.3,12448.3,-45643.7,-4296.91,10731.7)"
     spreadMethod="pad"
     id="linearGradient134"><stop
       style="stop-opacity:1;stop-color:#00adef"
       offset="0"
       id="stop130" /><stop
       style="stop-opacity:1;stop-color:#2c3892"
       offset="1"
       id="stop132" /></linearGradient><clipPath
     clipPathUnits="userSpaceOnUse"
     id="clipPath144"><path
       d="m 14060.1,14010 c -134.5,277.1 -200,602.2 -180.6,928.5 27.2,456.4 219.9,1043.4 940.1,1403.4 -913.5,-342 -1143.8,-1002.5 -1173.7,-1504.7 -19.4,-326.4 46.1,-651.5 180.6,-928.6 833.6,-1717.7 2656.1,-937.3 3006,-767.5 -617.9,-240.7 -2058.1,-602.9 -2772.4,868.9 z"
       id="path142" /></clipPath><linearGradient
     x1="0"
     y1="0"
     x2="1"
     y2="0"
     gradientUnits="userSpaceOnUse"
     gradientTransform="matrix(6161.75,1680.48,1680.48,-6161.75,13455.7,14066)"
     spreadMethod="pad"
     id="linearGradient150"><stop
       style="stop-opacity:1;stop-color:#00adef"
       offset="0"
       id="stop146" /><stop
       style="stop-opacity:1;stop-color:#2c3892"
       offset="1"
       id="stop148" /></linearGradient><clipPath
     clipPathUnits="userSpaceOnUse"
     id="clipPath160"><path
       d="m 15129.5,15957.6 c 0,0 496.1,418.4 1103.8,-95.2 0,0 -562.1,334.3 -1103.8,95.2 z"
       id="path158" /></clipPath><linearGradient
     x1="0"
     y1="0"
     x2="1"
     y2="0"
     gradientUnits="userSpaceOnUse"
     gradientTransform="matrix(3323.64,-920.891,-920.891,-3323.64,14686.1,16242.3)"
     spreadMethod="pad"
     id="linearGradient166"><stop
       style="stop-opacity:1;stop-color:#00adef"
       offset="0"
       id="stop162" /><stop
       style="stop-opacity:1;stop-color:#2c3892"
       offset="1"
       id="stop164" /></linearGradient><clipPath
     clipPathUnits="userSpaceOnUse"
     id="clipPath176"><path
       d="m 3295.49,13753.6 c 1451.93,-1428.9 3276.78,-606.3 3276.78,-606.3 -2246.89,-1119.2 -3276.78,606.3 -3276.78,606.3 z m -290.32,365.3 c 430.74,-1341.3 1812.53,-1423.1 1812.53,-1423.1 -1735.47,35.6 -1812.53,1423.1 -1812.53,1423.1 z M 2973.9,14919 C 2645.72,13892.2 3322.45,13079.9 3322.45,13079.9 2445,14060.6 2973.9,14919 2973.9,14919 Z m 4653.29,-370.1 c -442.85,-84.5 -987.83,-283.3 -1596.4,-704.2 0,0 -1999.71,-1408.2 -2707.57,390.8 -0.51,1.3 -0.77,1.9 -0.77,1.9 0.26,-0.6 0.52,-1.3 0.77,-1.9 25.21,-62.5 675.94,-1612.1 2624.78,-84.1 655.72,514.1 1201.94,714.2 1635.44,756.9 -51.73,229.6 -135.58,447 -246.61,647.3 522,341.4 1173.81,482.5 1173.81,482.5 -511.71,46.1 -1002.86,-196.2 -1254.21,-347.8 -0.39,0.6 -0.78,1.3 -1.17,1.9 -356.8,-210.9 -754.06,-531.5 -1150.74,-1018.5 0,0 -1528.42,-1909.4 -2709.28,-378.8 -0.85,1.1 -1.28,1.7 -1.28,1.7 0.43,-0.6 0.85,-1.1 1.28,-1.7 41.63,-53 1098.17,-1360.1 2544.36,650.2 380.61,529.1 750.35,855 1086.94,1049.3 -450.29,508.5 -1108.07,829.1 -1840.74,829.1 -1357.39,0 -2457.77,-1100.4 -2457.77,-2457.8 0,-1357.3 1100.38,-2457.7 2457.77,-2457.7 1357.39,0 2457.77,1100.4 2457.77,2457.7 0,14.9 -0.15,29.8 -0.42,44.7 433.05,118.4 814.79,137.4 814.79,137.4 -285.69,74 -580.16,53 -830.75,1.1 z"
       id="path174" /></clipPath><linearGradient
     x1="0"
     y1="0"
     x2="1"
     y2="0"
     gradientUnits="userSpaceOnUse"
     gradientTransform="matrix(5782.61,0,0,-5782.61,2728.03,14365.7)"
     spreadMethod="pad"
     id="linearGradient184"><stop
       style="stop-opacity:1;stop-color:#00adef"
       offset="0"
       id="stop178" /><stop
       style="stop-opacity:1;stop-color:#00adef"
       offset="0.295699"
       id="stop180" /><stop
       style="stop-opacity:1;stop-color:#2c3892"
       offset="1"
       id="stop182" /></linearGradient><clipPath
     clipPathUnits="userSpaceOnUse"
     id="clipPath24-4"><path
       d="m 11794.4,5026.5 c 0,0 77.1,-1387.4 1812.6,-1423 0,0 -1381.8,81.8 -1812.6,1423 z"
       id="path22-6" /></clipPath><clipPath
     clipPathUnits="userSpaceOnUse"
     id="clipPath42-5"><path
       d="m 11763.2,5826.6 c 0,0 -528.9,-858.3 348.5,-1839 0,0 -676.7,812.2 -348.5,1839 z"
       id="path40-5" /></clipPath><clipPath
     clipPathUnits="userSpaceOnUse"
     id="clipPath72-7"><path
       d="m 2588.92,5926.2 c 0,0 77.06,-1387.4 1812.53,-1423 0,0 -1381.79,81.8 -1812.53,1423 z"
       id="path70-3" /></clipPath><clipPath
     clipPathUnits="userSpaceOnUse"
     id="clipPath90-9"><path
       d="m 2557.65,6726.3 c 0,0 -528.9,-858.3 348.55,-1839 0,0 -676.73,812.3 -348.55,1839 z"
       id="path88-6" /></clipPath><clipPath
     clipPathUnits="userSpaceOnUse"
     id="clipPath110-5"><path
       d="m 12268.9,14695.1 c 0,0 488.2,-2310.6 3412.5,-1921.6 0,0 -2342.2,-219.9 -3412.5,1921.6 z"
       id="path108-9" /></clipPath><clipPath
     clipPathUnits="userSpaceOnUse"
     id="clipPath128-9"><path
       d="m 15815.2,16419 c -93.9,4.2 -182.4,2.3 -266.1,-4.9 -314.7,-27.2 -559,-128.8 -745.9,-255.2 -405.3,-274.1 -540.8,-664.8 -540.8,-664.8 113.4,159.3 245.2,290.2 385,397.8 252.9,194.4 532.5,312.5 778.9,384.3 115.1,33.6 222.9,57 317.5,73.3 88.4,15.3 165.2,24.4 225.2,29.9 9.2,8.1 18.3,16.2 27.6,24.2 -62.5,7.7 -123,12.8 -181.4,15.4 z"
       id="path126-1" /></clipPath><clipPath
     clipPathUnits="userSpaceOnUse"
     id="clipPath144-7"><path
       d="m 14060.1,14010 c -134.5,277.1 -200,602.2 -180.6,928.5 27.2,456.4 219.9,1043.4 940.1,1403.4 -913.5,-342 -1143.8,-1002.5 -1173.7,-1504.7 -19.4,-326.4 46.1,-651.5 180.6,-928.6 833.6,-1717.7 2656.1,-937.3 3006,-767.5 -617.9,-240.7 -2058.1,-602.9 -2772.4,868.9 z"
       id="path142-4" /></clipPath><clipPath
     clipPathUnits="userSpaceOnUse"
     id="clipPath160-0"><path
       d="m 15129.5,15957.6 c 0,0 496.1,418.4 1103.8,-95.2 0,0 -562.1,334.3 -1103.8,95.2 z"
       id="path158-9" /></clipPath><clipPath
     clipPathUnits="userSpaceOnUse"
     id="clipPath176-8"><path
       d="m 3295.49,13753.6 c 1451.93,-1428.9 3276.78,-606.3 3276.78,-606.3 -2246.89,-1119.2 -3276.78,606.3 -3276.78,606.3 z m -290.32,365.3 c 430.74,-1341.3 1812.53,-1423.1 1812.53,-1423.1 -1735.47,35.6 -1812.53,1423.1 -1812.53,1423.1 z M 2973.9,14919 C 2645.72,13892.2 3322.45,13079.9 3322.45,13079.9 2445,14060.6 2973.9,14919 2973.9,14919 Z m 4653.29,-370.1 c -442.85,-84.5 -987.83,-283.3 -1596.4,-704.2 0,0 -1999.71,-1408.2 -2707.57,390.8 -0.51,1.3 -0.77,1.9 -0.77,1.9 0.26,-0.6 0.52,-1.3 0.77,-1.9 25.21,-62.5 675.94,-1612.1 2624.78,-84.1 655.72,514.1 1201.94,714.2 1635.44,756.9 -51.73,229.6 -135.58,447 -246.61,647.3 522,341.4 1173.81,482.5 1173.81,482.5 -511.71,46.1 -1002.86,-196.2 -1254.21,-347.8 -0.39,0.6 -0.78,1.3 -1.17,1.9 -356.8,-210.9 -754.06,-531.5 -1150.74,-1018.5 0,0 -1528.42,-1909.4 -2709.28,-378.8 -0.85,1.1 -1.28,1.7 -1.28,1.7 0.43,-0.6 0.85,-1.1 1.28,-1.7 41.63,-53 1098.17,-1360.1 2544.36,650.2 380.61,529.1 750.35,855 1086.94,1049.3 -450.29,508.5 -1108.07,829.1 -1840.74,829.1 -1357.39,0 -2457.77,-1100.4 -2457.77,-2457.8 0,-1357.3 1100.38,-2457.7 2457.77,-2457.7 1357.39,0 2457.77,1100.4 2457.77,2457.7 0,14.9 -0.15,29.8 -0.42,44.7 433.05,118.4 814.79,137.4 814.79,137.4 -285.69,74 -580.16,53 -830.75,1.1 z"
       id="path174-2" /></clipPath><linearGradient
     x1="0"
     y1="0"
     x2="1"
     y2="0"
     gradientUnits="userSpaceOnUse"
     gradientTransform="matrix(5782.61,0,0,-5782.61,2728.03,14365.7)"
     spreadMethod="pad"
     id="linearGradient184-3"><stop
       style="stop-opacity:1;stop-color:#00adef"
       offset="0"
       id="stop178-5" /><stop
       style="stop-opacity:1;stop-color:#00adef"
       offset="0.295699"
       id="stop180-0" /><stop
       style="stop-opacity:1;stop-color:#2c3892"
       offset="1"
       id="stop182-2" /></linearGradient><style
     type="text/css"
     id="style1">
   <![CDATA[
    .fil0 {fill:#27afb7;fill-rule:nonzero}
   ]]>
  </style><style
     id="style1-3">.cls-1{fill:#aa752e;}.cls-2{fill:#ffda00;}</style></defs><sodipodi:namedview
   pagecolor="#ffffff"
   bordercolor="#666666"
   borderopacity="1"
   objecttolerance="10"
   gridtolerance="10"
   guidetolerance="10"
   inkscape:pageopacity="0"
   inkscape:pageshadow="2"
   inkscape:window-width="3840"
   inkscape:window-height="2126"
   id="namedview39"
   showgrid="false"
   inkscape:zoom="0.25000001"
   inkscape:cx="-2063.9999"
   inkscape:cy="2069.9999"
   inkscape:window-x="-11"
   inkscape:window-y="-11"
   inkscape:window-maximized="1"
   inkscape:current-layer="Layer_1"
   fit-margin-top="100"
   fit-margin-left="100"
   fit-margin-right="100"
   fit-margin-bottom="100"
   inkscape:pagecheckerboard="0"
   inkscape:showpageshadow="2"
   inkscape:deskcolor="#d1d1d1" /><g
   id="g9"
   transform="translate(-568.34203,2954.1756)"
   style="stroke:#4ba6c2;stroke-opacity:1" /><g
   id="g11"
   transform="translate(-568.34203,2954.1756)"
   style="stroke:#4ba6c2;stroke-opacity:1" /><g
   id="g13"
   transform="translate(-568.34203,2954.1756)"
   style="stroke:#4ba6c2;stroke-opacity:1" /><g
   id="g15"
   transform="translate(-568.34203,2954.1756)"
   style="stroke:#4ba6c2;stroke-opacity:1" /><g
   id="g17"
   transform="translate(-568.34203,2954.1756)"
   style="stroke:#4ba6c2;stroke-opacity:1" /><g
   id="g19"
   transform="translate(-568.34203,2954.1756)"
   style="stroke:#4ba6c2;stroke-opacity:1" /><g
   id="g21"
   transform="translate(-568.34203,2954.1756)"
   style="stroke:#4ba6c2;stroke-opacity:1" /><g
   id="g23"
   transform="translate(-568.34203,2954.1756)"
   style="stroke:#4ba6c2;stroke-opacity:1" /><g
   id="g25"
   transform="translate(-568.34203,2954.1756)"
   style="stroke:#4ba6c2;stroke-opacity:1" /><g
   id="g27"
   transform="translate(-568.34203,2954.1756)"
   style="stroke:#4ba6c2;stroke-opacity:1" /><g
   id="g29"
   transform="translate(-568.34203,2954.1756)"
   style="stroke:#4ba6c2;stroke-opacity:1" /><g
   id="g31"
   transform="translate(-568.34203,2954.1756)"
   style="stroke:#4ba6c2;stroke-opacity:1" /><g
   id="g33"
   transform="translate(-568.34203,2954.1756)"
   style="stroke:#4ba6c2;stroke-opacity:1" /><g
   id="g35"
   transform="translate(-568.34203,2954.1756)"
   style="stroke:#4ba6c2;stroke-opacity:1" /><g
   id="g37"
   transform="translate(-568.34203,2954.1756)"
   style="stroke:#4ba6c2;stroke-opacity:1" /><text
   xml:space="preserve"
   style="font-style:normal;font-weight:normal;font-size:57.6838px;line-height:125%;font-family:sans-serif;letter-spacing:0px;word-spacing:0px;fill:#3982d8;fill-opacity:1;stroke:#3982d8;stroke-width:20.5348;stroke-linecap:butt;stroke-linejoin:miter;stroke-miterlimit:4;stroke-dasharray:none;stroke-opacity:1"
   x="57.896358"
   y="2435.4348"
   id="text4189"><tspan
     sodipodi:role="line"
     id="tspan4191"
     x="57.896358"
     y="2435.4348"
     style="font-style:normal;font-variant:normal;font-weight:normal;font-stretch:normal;font-size:901.31px;font-family:Candara;-inkscape-font-specification:Candara;fill:#3982d8;fill-opacity:1;stroke:#3982d8;stroke-width:20.5348;stroke-miterlimit:4;stroke-dasharray:none;stroke-opacity:1">SPOT</tspan></text>
<g
   id="g2"
   transform="translate(-119.34556,-64.044277)"><g
     id="g302060"
     style="display:inline;stroke-width:0.81173"
     transform="matrix(107.4876,0,0,107.4876,-6575.4698,-34880.102)"><path
       style="color:#000000;fill:#87d1ee;stroke-width:0.81173;stroke-linecap:round;stroke-linejoin:round;-inkscape-stroke:none;paint-order:markers fill stroke"
       d="m 72.390625,328.5918 c -3.357747,0 -6.085937,2.72623 -6.085938,6.08398 0,3.35775 2.728191,6.08594 6.085938,6.08594 3.357747,0 6.083984,-2.72819 6.083984,-6.08594 0,-3.35775 -2.726237,-6.08398 -6.083984,-6.08398 z"
       id="path287660" /><path
       id="path289905"
       style="color:#000000;fill:#2bb3cd;fill-opacity:1;stroke-width:0.81173;stroke-linecap:round;stroke-linejoin:round;-inkscape-stroke:none;paint-order:markers fill stroke"
       d="m 72.390224,328.5918 c -1.846683,0 -3.502638,0.82468 -4.619355,2.12545 0.763731,-0.34545 1.610789,-0.53795 2.502689,-0.53795 3.357747,0 6.084384,2.72612 6.084384,6.08386 0,1.51228 -0.553492,2.8969 -1.468128,3.96204 2.112847,-0.95484 3.584795,-3.0823 3.584795,-5.54954 0,-3.35774 -2.726637,-6.08386 -6.084385,-6.08386 z" /><path
       id="path287668"
       style="color:#000000;fill:#50b86b;stroke-width:3.06796;stroke-linecap:round;stroke-linejoin:round;-inkscape-stroke:none;paint-order:markers fill stroke"
       d="m 273.60156,167.40234 c -7.48118,0 -14.13342,3.58154 -18.33594,9.1211 l 0.9961,0.57812 c 0.14933,0.11452 5.1928,3.96795 10.52734,3.86133 0.6036,-7.9e-4 1.32276,-0.10259 2.05274,-0.21484 1.17886,1.16092 2.1328,1.80532 3.9414,3.44726 1.25822,1.14225 2.47876,1.95248 3.875,2.06836 1.39624,0.11603 2.75067,-0.57303 3.99414,-1.86914 3.54959,-3.69966 3.88286,-8.29795 4.6875,-13.01367 a 1.0001006,1.0001006 0 0 0 0.008,-0.0508 l 0.082,-0.65235 c -3.45674,-2.07934 -7.50399,-3.27539 -11.82813,-3.27539 z"
       transform="matrix(0.26458333,0,0,0.26458333,0,284.3)" /><path
       id="path287676"
       style="color:#000000;fill:#50b86b;stroke-width:3.06796;stroke-linecap:round;stroke-linejoin:round;-inkscape-stroke:none;paint-order:markers fill stroke"
       d="m 268.17188,186.20117 c -0.49243,-0.003 -0.90729,0.0176 -1.20508,0.0176 h -15.98438 c -0.24935,1.35507 -0.38281,2.75109 -0.38281,4.17773 0,3.03736 0.59345,5.93774 1.66601,8.59375 l 0.59376,0.0723 c 1.13631,0.20787 2.28601,0.34201 3.34374,0.42188 1.74981,0.1319 3.26752,1.70882 4.4375,3.46093 0.92026,1.37817 2.22373,2.63112 3.71876,3.47657 1.48592,0.84026 3.20851,1.28044 4.88671,0.84179 1.68301,-0.37304 2.8906,-1.30394 3.53711,-2.41992 0.6431,-1.11012 0.77344,-2.34814 0.53125,-3.41797 v -0.002 c -0.28312,-1.42128 0.11566,-2.05441 0.73828,-2.94336 0.62292,-0.88932 1.60049,-1.98399 1.625,-3.67578 a 1.0001006,1.0001006 0 0 0 0,-0.002 1.0001006,1.0001006 0 0 0 0,-0.002 1.0001006,1.0001006 0 0 0 0,-0.002 1.0001006,1.0001006 0 0 0 0,-0.002 1.0001006,1.0001006 0 0 0 0,-0.002 1.0001006,1.0001006 0 0 0 0,-0.002 1.0001006,1.0001006 0 0 0 0,-0.002 1.0001006,1.0001006 0 0 0 0,-0.002 c 0,-4.32601 -1.61529,-6.707 -3.60351,-7.74414 -1.36691,-0.71301 -2.81902,-0.83625 -3.90234,-0.84375 z"
       transform="matrix(0.26458333,0,0,0.26458333,0,284.3)" /><path
       id="path287684"
       style="color:#000000;fill:#50b86b;stroke-width:3.06796;stroke-linecap:round;stroke-linejoin:round;-inkscape-stroke:none;paint-order:markers fill stroke"
       d="m 291.08984,187.96289 c -1.18824,0.0144 -2.26038,0.3272 -3.16015,0.86133 -2.05663,1.22071 -3.20313,3.42426 -3.20313,5.52148 0,0.93128 -0.16468,1.43525 -0.36133,1.7793 -0.19664,0.34394 -0.46094,0.5736 -0.84179,0.87891 -0.38086,0.30538 -0.88392,0.67433 -1.29102,1.29882 -0.40709,0.62446 -0.6582,1.46935 -0.6582,2.53907 0,2.61025 0.30322,4.32858 0.90039,5.66211 0.59716,1.33353 1.46517,2.19563 2.35547,3.08593 l 0.5332,0.57032 c 6.72495,-4.01678 11.23438,-11.3695 11.23438,-19.76368 0,-0.16306 -0.002,-0.32601 -0.006,-0.48828 l -0.3711,-0.29492 a 1.0001006,1.0001006 0 0 0 -0.0879,-0.0586 c -1.59376,-1.00853 -3.13074,-1.49742 -4.52539,-1.58008 -0.17433,-0.0104 -0.34783,-0.0138 -0.51758,-0.0117 z"
       transform="matrix(0.26458333,0,0,0.26458333,0,284.3)" /><path
       id="path291789"
       style="color:#000000;fill:#46a05d;fill-opacity:1;stroke-width:0.811731;stroke-linecap:round;stroke-linejoin:round;-inkscape-stroke:none;paint-order:markers fill stroke"
       d="m 72.390412,328.59187 c -1.752896,-0.0115 -3.484885,0.78952 -4.618363,2.12503 1.800675,-0.82776 4.004606,-0.68994 5.684993,0.3624 0.51775,0.31879 0.987296,0.71554 1.388478,1.1724 0.429559,-0.86206 0.519449,-1.83617 0.671957,-2.77356 -0.193394,-0.16817 -0.486378,-0.27629 -0.729808,-0.39472 -0.754893,-0.32463 -1.575795,-0.4917 -2.397257,-0.49155 z" /><path
       id="path295652"
       style="color:#000000;fill:#46a05d;fill-opacity:1;stroke-width:0.81173;stroke-linecap:round;stroke-linejoin:round;-inkscape-stroke:none;paint-order:markers fill stroke"
       d="m 77.017519,334.03185 c -0.344578,0.003 -0.69079,0.10834 -0.967899,0.31579 0.56623,1.68149 0.344403,3.60706 -0.59849,5.11127 -0.0991,0.13272 -0.198467,0.25725 -0.02601,0.36337 0.11176,0.19413 0.291728,-0.10458 0.427895,-0.1436 1.38994,-0.95743 2.350605,-2.5128 2.567533,-4.18832 0.04123,-0.31272 0.05942,-0.62852 0.0527,-0.9439 -0.408371,-0.31658 -0.936442,-0.51661 -1.455732,-0.51461 z" /><path
       id="path299845"
       style="color:#000000;fill:#46a05d;fill-opacity:1;stroke-width:0.81173;stroke-linecap:round;stroke-linejoin:round;-inkscape-stroke:none;paint-order:markers fill stroke"
       d="m 70.953809,333.56573 c -0.130288,-9.1e-4 -0.240053,0.005 -0.318844,0.005 h -0.578776 c 0.26121,0.0138 0.574165,0.0633 0.871781,0.2186 0.52605,0.27441 0.953429,0.90438 0.953429,2.04897 a 0.26460995,0.26460995 0 0 0 0,5.1e-4 0.26460995,0.26460995 0 0 0 0,5.2e-4 0.26460995,0.26460995 0 0 0 0,5.2e-4 0.26460995,0.26460995 0 0 0 0,5.1e-4 0.26460995,0.26460995 0 0 0 0,5.2e-4 0.26460995,0.26460995 0 0 0 0,5.1e-4 0.26460995,0.26460995 0 0 0 0,5.2e-4 0.26460995,0.26460995 0 0 0 0,5.2e-4 c -0.0065,0.44762 -0.265134,0.73725 -0.429948,0.97255 -0.164735,0.23521 -0.270245,0.40271 -0.195337,0.77876 v 5.2e-4 c 0.06408,0.28306 0.02959,0.61062 -0.140559,0.90434 -0.149241,0.25761 -0.411338,0.47775 -0.771528,0.59531 0.287994,0.095 0.593757,0.12344 0.894001,0.045 0.445299,-0.0987 0.764804,-0.345 0.93586,-0.64027 0.170153,-0.29372 0.204639,-0.62128 0.14056,-0.90434 v -5.2e-4 c -0.07491,-0.37605 0.0306,-0.54355 0.195336,-0.77876 0.164815,-0.2353 0.423463,-0.52493 0.429948,-0.97255 a 0.26460995,0.26460995 0 0 0 0,-5.2e-4 0.26460995,0.26460995 0 0 0 0,-5.2e-4 0.26460995,0.26460995 0 0 0 0,-5.1e-4 0.26460995,0.26460995 0 0 0 0,-5.2e-4 0.26460995,0.26460995 0 0 0 0,-5.1e-4 0.26460995,0.26460995 0 0 0 0,-5.2e-4 0.26460995,0.26460995 0 0 0 0,-5.2e-4 0.26460995,0.26460995 0 0 0 0,-5.1e-4 c 0,-1.14459 -0.427379,-1.77456 -0.953428,-2.04897 -0.361662,-0.18865 -0.745866,-0.22127 -1.032495,-0.22325 z" /></g><g
     id="g1"
     transform="translate(-35.999999,-12)"><rect
       class="cls-1"
       width="24.394407"
       height="390.31052"
       rx="12.197204"
       ry="12.197204"
       id="rect1"
       x="1250.6218"
       y="318.03143"
       transform="rotate(-6.3628415)"
       style="stroke-width:6.0986" /><path
       class="cls-2"
       d="m 1303.8137,187.37638 51.1917,18.83714 a 109.10399,109.10399 0 0 0 96.9225,-11.29886 v 0 a 109.10399,109.10399 0 0 1 96.9766,-10.81399 l 51.1917,18.83715 21.628,193.95311 -51.1918,-18.83715 a 109.10399,109.10399 0 0 0 -96.9765,10.81398 v 0 a 109.10399,109.10399 0 0 1 -96.9766,10.81399 l -51.1917,-18.83715 z"
       id="path1"
       style="fill:#ffd700;fill-opacity:1;stroke-width:6.0986" /></g></g></svg>
